<svg width="1433" height="341" viewBox="0 0 1433 341" fill="none" xmlns="http://www.w3.org/2000/svg">
<g clip-path="url(#clip0_112_353)">
<path opacity="0.29" d="M1214 214C1214.53 214.012 1215.04 213.811 1215.41 213.436C1215.79 213.061 1216 212.542 1216 212C1216 211.458 1215.79 210.939 1215.41 210.564C1215.04 210.189 1214.53 209.988 1214 210C1212.48 210.033 1210.97 210.067 1209.45 210.1C1182.15 210.7 1154.85 211.3 1127.55 211.9C1126.03 211.933 1124.52 211.967 1123 212C1124.52 212.033 1126.03 212.067 1127.55 212.1C1154.85 212.7 1182.15 213.3 1209.45 213.9C1210.97 213.933 1212.48 213.967 1214 214Z" fill="#B9B9B9"/>
<path opacity="0.29" d="M88 214C88.5304 214.012 89.0391 213.811 89.4142 213.436C89.7893 213.061 90 212.542 90 212C90 211.458 89.7893 210.939 89.4142 210.564C89.0391 210.189 88.5304 209.988 88 210C86.4833 210.033 84.9667 210.067 83.45 210.1C56.15 210.7 28.85 211.3 1.55 211.9C0.0333252 211.933 -1.48334 211.967 -3 212C-1.48334 212.033 0.0333252 212.067 1.55 212.1C28.85 212.7 56.15 213.3 83.45 213.9C84.9667 213.933 86.4833 213.967 88 214Z" fill="#B9B9B9"/>
<path opacity="0.29" d="M436 214C436.53 214.012 437.039 213.811 437.414 213.436C437.789 213.061 438 212.542 438 212C438 211.458 437.789 210.939 437.414 210.564C437.039 210.189 436.53 209.988 436 210C434.467 210.033 432.933 210.067 431.4 210.1C403.8 210.7 376.2 211.3 348.6 211.9C347.067 211.933 345.533 211.967 344 212C345.533 212.033 347.067 212.067 348.6 212.1C376.2 212.7 403.8 213.3 431.4 213.9C432.933 213.933 434.467 213.967 436 214Z" fill="#B9B9B9"/>
<path opacity="0.29" d="M795 224C795.53 224.012 796.039 223.811 796.414 223.436C796.789 223.061 797 222.542 797 222C797 221.458 796.789 220.939 796.414 220.564C796.039 220.189 795.53 219.988 795 220C793.483 220.033 791.967 220.067 790.45 220.1C763.15 220.7 735.85 221.3 708.55 221.9C707.033 221.933 705.517 221.967 704 222C705.517 222.033 707.033 222.067 708.55 222.1C735.85 222.7 763.15 223.3 790.45 223.9C791.967 223.933 793.483 223.967 795 224Z" fill="#B9B9B9"/>
<path opacity="0.29" d="M1054 186C1054.53 186.012 1055.04 185.811 1055.41 185.436C1055.79 185.061 1056 184.542 1056 184C1056 183.458 1055.79 182.939 1055.41 182.564C1055.04 182.189 1054.53 181.988 1054 182C1052.48 182.033 1050.97 182.067 1049.45 182.1C1022.15 182.7 994.85 183.3 967.55 183.9C966.033 183.933 964.517 183.967 963 184C964.517 184.033 966.033 184.067 967.55 184.1C994.85 184.7 1022.15 185.3 1049.45 185.9C1050.97 185.933 1052.48 185.967 1054 186Z" fill="#B9B9B9"/>
<path opacity="0.29" d="M1392 83C1392.53 83.0118 1393.04 82.8115 1393.41 82.4362C1393.79 82.0613 1394 81.5423 1394 81C1394 80.4577 1393.79 79.9387 1393.41 79.5638C1393.04 79.1885 1392.53 78.9882 1392 79C1390.48 79.0333 1388.97 79.0667 1387.45 79.1C1360.15 79.7 1332.85 80.3 1305.55 80.9C1304.03 80.9333 1302.52 80.9667 1301 81C1302.52 81.0333 1304.03 81.0667 1305.55 81.1C1332.85 81.7 1360.15 82.3 1387.45 82.9C1388.97 82.9333 1390.48 82.9667 1392 83Z" fill="#B9B9B9"/>
<path opacity="0.29" d="M266 83C266.53 83.0118 267.039 82.8115 267.414 82.4362C267.789 82.0613 268 81.5423 268 81C268 80.4577 267.789 79.9387 267.414 79.5638C267.039 79.1885 266.53 78.9882 266 79C264.483 79.0333 262.967 79.0667 261.45 79.1C234.15 79.7 206.85 80.3 179.55 80.9C178.033 80.9333 176.517 80.9667 175 81C176.517 81.0333 178.033 81.0667 179.55 81.1C206.85 81.7 234.15 82.3 261.45 82.9C262.967 82.9333 264.483 82.9667 266 83Z" fill="#B9B9B9"/>
<path opacity="0.29" d="M613 83C613.53 83.0118 614.039 82.8115 614.414 82.4362C614.789 82.0613 615 81.5423 615 81C615 80.4577 614.789 79.9387 614.414 79.5638C614.039 79.1885 613.53 78.9882 613 79C611.483 79.0333 609.967 79.0667 608.45 79.1C581.15 79.7 553.85 80.3 526.55 80.9C525.033 80.9333 523.517 80.9667 522 81C523.517 81.0333 525.033 81.0667 526.55 81.1C553.85 81.7 581.15 82.3 608.45 82.9C609.967 82.9333 611.483 82.9667 613 83Z" fill="#B9B9B9"/>
<path opacity="0.29" d="M974 93C974.53 93.0118 975.039 92.8115 975.414 92.4362C975.789 92.0613 976 91.5423 976 91C976 90.4577 975.789 89.9387 975.414 89.5638C975.039 89.1885 974.53 88.9882 974 89C972.483 89.0333 970.967 89.0667 969.45 89.1C942.15 89.7 914.85 90.3 887.55 90.9C886.033 90.9333 884.517 90.9667 883 91C884.517 91.0333 886.033 91.0667 887.55 91.1C914.85 91.7 942.15 92.3 969.45 92.9C970.967 92.9333 972.483 92.9667 974 93Z" fill="#B9B9B9"/>
<path opacity="0.29" d="M1251 17C1251.53 17.0118 1252.04 16.8115 1252.41 16.4362C1252.79 16.0613 1253 15.5423 1253 15C1253 14.4577 1252.79 13.9387 1252.41 13.5638C1252.04 13.1885 1251.53 12.9882 1251 13C1249.48 13.0333 1247.97 13.0667 1246.45 13.1C1219.15 13.7 1191.85 14.3 1164.55 14.9C1163.03 14.9333 1161.52 14.9667 1160 15C1161.52 15.0333 1163.03 15.0667 1164.55 15.1C1191.85 15.7 1219.15 16.3 1246.45 16.9C1247.97 16.9333 1249.48 16.9667 1251 17Z" fill="#B9B9B9"/>
<path opacity="0.29" d="M125 17C125.53 17.012 126.039 16.8117 126.414 16.4364C126.789 16.0616 127 15.5424 127 15C127 14.4576 126.789 13.9384 126.414 13.5636C126.039 13.1883 125.53 12.988 125 13C123.5 13.0333 122 13.0667 120.5 13.1C93.5 13.7 66.5 14.3 39.5 14.9C38 14.9333 36.5 14.9667 35 15C36.5 15.0333 38 15.0667 39.5 15.1C66.5 15.7 93.5 16.3 120.5 16.9C122 16.9333 123.5 16.9667 125 17Z" fill="#B9B9B9"/>
<path opacity="0.29" d="M473 17C473.53 17.0118 474.039 16.8115 474.414 16.4362C474.789 16.0613 475 15.5423 475 15C475 14.4577 474.789 13.9387 474.414 13.5638C474.039 13.1885 473.53 12.9882 473 13C471.483 13.0333 469.967 13.0667 468.45 13.1C441.15 13.7 413.85 14.3 386.55 14.9C385.033 14.9333 383.517 14.9667 382 15C383.517 15.0333 385.033 15.0667 386.55 15.1C413.85 15.7 441.15 16.3 468.45 16.9C469.967 16.9333 471.483 16.9667 473 17Z" fill="#B9B9B9"/>
<path opacity="0.29" d="M833 27C833.53 27.0118 834.039 26.8115 834.414 26.4362C834.789 26.0613 835 25.5423 835 25C835 24.4577 834.789 23.9387 834.414 23.5638C834.039 23.1885 833.53 22.9882 833 23C831.483 23.0333 829.967 23.0667 828.45 23.1C801.15 23.7 773.85 24.3 746.55 24.9C745.033 24.9333 743.517 24.9667 742 25C743.517 25.0333 745.033 25.0667 746.55 25.1C773.85 25.7 801.15 26.3 828.45 26.9C829.967 26.9333 831.483 26.9667 833 27Z" fill="#B9B9B9"/>
<path opacity="0.29" d="M1361 333C1361.53 333.012 1362.04 332.811 1362.41 332.436C1362.79 332.061 1363 331.542 1363 331C1363 330.458 1362.79 329.939 1362.41 329.564C1362.04 329.189 1361.53 328.988 1361 329C1359.48 329.033 1357.97 329.067 1356.45 329.1C1329.15 329.7 1301.85 330.3 1274.55 330.9C1273.03 330.933 1271.52 330.967 1270 331C1271.52 331.033 1273.03 331.067 1274.55 331.1C1301.85 331.7 1329.15 332.3 1356.45 332.9C1357.97 332.933 1359.48 332.967 1361 333Z" fill="#B9B9B9"/>
<path opacity="0.29" d="M235 333C235.53 333.012 236.039 332.811 236.414 332.436C236.789 332.061 237 331.542 237 331C237 330.458 236.789 329.939 236.414 329.564C236.039 329.189 235.53 328.988 235 329C233.483 329.033 231.967 329.067 230.45 329.1C203.15 329.7 175.85 330.3 148.55 330.9C147.033 330.933 145.517 330.967 144 331C145.517 331.033 147.033 331.067 148.55 331.1C175.85 331.7 203.15 332.3 230.45 332.9C231.967 332.933 233.483 332.967 235 333Z" fill="#B9B9B9"/>
<path opacity="0.29" d="M583 333C583.53 333.012 584.039 332.811 584.414 332.436C584.789 332.061 585 331.542 585 331C585 330.458 584.789 329.939 584.414 329.564C584.039 329.189 583.53 328.988 583 329C581.483 329.033 579.967 329.067 578.45 329.1C551.15 329.7 523.85 330.3 496.55 330.9C495.033 330.933 493.517 330.967 492 331C493.517 331.033 495.033 331.067 496.55 331.1C523.85 331.7 551.15 332.3 578.45 332.9C579.967 332.933 581.483 332.967 583 333Z" fill="#B9B9B9"/>
<path opacity="0.29" d="M943 343C943.53 343.012 944.039 342.811 944.414 342.436C944.789 342.061 945 341.542 945 341C945 340.458 944.789 339.939 944.414 339.564C944.039 339.189 943.53 338.988 943 339C941.483 339.033 939.967 339.067 938.45 339.1C911.15 339.7 883.85 340.3 856.55 340.9C855.033 340.933 853.517 340.967 852 341C853.517 341.033 855.033 341.067 856.55 341.1C883.85 341.7 911.15 342.3 938.45 342.9C939.967 342.933 941.483 342.967 943 343Z" fill="#B9B9B9"/>
<path opacity="0.29" d="M1437 2C1437.53 2.01182 1438.04 1.81146 1438.41 1.43619C1438.79 1.06132 1439 0.542253 1439 0C1439 -0.542253 1438.79 -1.06132 1438.41 -1.43619C1438.04 -1.81146 1437.53 -2.01182 1437 -2C1435.48 -1.96667 1433.97 -1.93333 1432.45 -1.9C1405.15 -1.3 1377.85 -0.7 1350.55 -0.1C1349.03 -0.0666667 1347.52 -0.0333333 1346 0C1347.52 0.0333333 1349.03 0.0666667 1350.55 0.1C1377.85 0.7 1405.15 1.3 1432.45 1.9C1433.97 1.93333 1435.48 1.96667 1437 2Z" fill="#B9B9B9"/>
<path opacity="0.29" d="M311 2C311.53 2.01182 312.039 1.81146 312.414 1.43619C312.789 1.06132 313 0.542253 313 0C313 -0.542253 312.789 -1.06132 312.414 -1.43619C312.039 -1.81146 311.53 -2.01182 311 -2C309.483 -1.96667 307.967 -1.93333 306.45 -1.9C279.15 -1.3 251.85 -0.7 224.55 -0.1C223.033 -0.0666667 221.517 -0.0333333 220 0C221.517 0.0333333 223.033 0.0666667 224.55 0.1C251.85 0.7 279.15 1.3 306.45 1.9C307.967 1.93333 309.483 1.96667 311 2Z" fill="#B9B9B9"/>
<path opacity="0.29" d="M659 2C659.53 2.01182 660.039 1.81146 660.414 1.43619C660.789 1.06132 661 0.542253 661 0C661 -0.542253 660.789 -1.06132 660.414 -1.43619C660.039 -1.81146 659.53 -2.01182 659 -2C657.483 -1.96667 655.967 -1.93333 654.45 -1.9C627.15 -1.3 599.85 -0.7 572.55 -0.1C571.033 -0.0666667 569.517 -0.0333333 568 0C569.517 0.0333333 571.033 0.0666667 572.55 0.1C599.85 0.7 627.15 1.3 654.45 1.9C655.967 1.93333 657.483 1.96667 659 2Z" fill="#B9B9B9"/>
<path opacity="0.29" d="M1018 12C1018.53 12.0118 1019.04 11.8115 1019.41 11.4362C1019.79 11.0613 1020 10.5423 1020 10C1020 9.45775 1019.79 8.93868 1019.41 8.56381C1019.04 8.18854 1018.53 7.98818 1018 8C1016.48 8.03333 1014.97 8.06667 1013.45 8.1C986.15 8.7 958.85 9.3 931.55 9.9C930.033 9.93333 928.517 9.96667 927 10C928.517 10.0333 930.033 10.0667 931.55 10.1C958.85 10.7 986.15 11.3 1013.45 11.9C1014.97 11.9333 1016.48 11.9667 1018 12Z" fill="#B9B9B9"/>
</g>
<defs>
<clipPath id="clip0_112_353">
<rect width="1440" height="341" fill="white" transform="translate(-3)"/>
</clipPath>
</defs>
</svg>
