<svg width="61" height="62" viewBox="0 0 61 62" fill="none" xmlns="http://www.w3.org/2000/svg">
<path d="M0.375957 61.6125C0.8773 62.1292 1.65438 62.1292 2.15572 61.6125L56.6013 5.47667C57.253 6.51 57.6541 7.72417 57.6541 9.04167V34.875C57.6541 35.5983 58.2055 36.1667 58.9074 36.1667C59.6093 36.1667 60.1608 35.5983 60.1608 34.875V9.04167C60.1608 4.05584 56.2252 0 51.3873 0H26.3203C25.6184 0 25.067 0.568336 25.067 1.29167C25.067 2.015 25.6184 2.58334 26.3203 2.58334H51.3873C52.6657 2.58334 53.8439 2.97084 54.8466 3.66833L0.375957 59.8042C-0.125381 60.3208 -0.125381 61.1217 0.375957 61.6383V61.6125Z" fill="white"/>
</svg>
