<svg width="4064" height="2516" viewBox="0 0 4064 2516" fill="none" xmlns="http://www.w3.org/2000/svg">
<g filter="url(#filter0_f_707_3)">
<path d="M1978.92 1048.1C1694.57 1073.45 1169.89 900.794 943.093 811.299C773.621 872.563 476.97 1010.65 646.142 1072.87C815.314 1135.1 706.299 1531.68 630.645 1722.2C718.464 1672.84 948.093 1549.35 1164.06 1450.25C1380.02 1351.15 1946.26 1682.06 2202.39 1859.9L3042.25 1919.82C3185.23 1802.28 3470.48 1508.56 3467.68 1273.95C3464.88 1039.34 3164.23 724.107 3014.25 595.817C2787.62 736.015 2263.28 1022.75 1978.92 1048.1Z" fill="#C7DFF5" fill-opacity="0.42"/>
<path d="M1978.92 1048.1C1694.57 1073.45 1169.89 900.794 943.093 811.299C773.621 872.563 476.97 1010.65 646.142 1072.87C815.314 1135.1 706.299 1531.68 630.645 1722.2C718.464 1672.84 948.093 1549.35 1164.06 1450.25C1380.02 1351.15 1946.26 1682.06 2202.39 1859.9L3042.25 1919.82C3185.23 1802.28 3470.48 1508.56 3467.68 1273.95C3464.88 1039.34 3164.23 724.107 3014.25 595.817C2787.62 736.015 2263.28 1022.75 1978.92 1048.1Z" stroke="black"/>
</g>
<defs>
<filter id="filter0_f_707_3" x="-6.10352e-05" y="-6.10352e-05" width="4063.4" height="2515.53" filterUnits="userSpaceOnUse" color-interpolation-filters="sRGB">
<feFlood flood-opacity="0" result="BackgroundImageFix"/>
<feBlend mode="normal" in="SourceGraphic" in2="BackgroundImageFix" result="shape"/>
<feGaussianBlur stdDeviation="297.6" result="effect1_foregroundBlur_707_3"/>
</filter>
</defs>
</svg>
