<svg width="21" height="21" viewBox="0 0 21 21" fill="none" xmlns="http://www.w3.org/2000/svg">
<g clip-path="url(#clip0_298_572)">
<path d="M19.8643 7.82924L13.1337 1.00949C11.6314 -0.339759 9.36863 -0.340634 7.847 1.02787L1.13488 7.82924C0.403375 8.57212 0 9.55387 0 10.5951V17.9372C0 19.626 1.37375 20.9997 3.0625 20.9997H17.9375C19.6262 20.9997 21 19.626 21 17.9372V10.5951C21 9.55387 20.5966 8.57124 19.8643 7.82924ZM14 20.1247H7V14.8747C7 12.9445 8.56975 11.3747 10.5 11.3747C12.4303 11.3747 14 12.9445 14 14.8747V20.1247ZM20.125 17.9372C20.125 19.1439 19.1441 20.1247 17.9375 20.1247H14.875V14.8747C14.875 12.4624 12.9124 10.4997 10.5 10.4997C8.08763 10.4997 6.125 12.4624 6.125 14.8747V20.1247H3.0625C1.85675 20.1247 0.875 19.1439 0.875 17.9372V10.5951C0.875 9.78487 1.18825 9.02099 1.75788 8.44437L8.45163 1.66049C9.03788 1.13199 9.77375 0.870366 10.507 0.870366C11.2341 0.870366 11.9577 1.12849 12.53 1.64299L19.2421 8.44437C19.8109 9.02099 20.125 9.78487 20.125 10.5951V17.9372Z" fill="white"/>
</g>
<defs>
<clipPath id="clip0_298_572">
<rect width="21" height="21" fill="white"/>
</clipPath>
</defs>
</svg>
